PathFileType	4	(X/Y/Z)	C:/Users/beibeiliu/ov580/test_trc/capture2\sequence.10_training_dense_right.trc
DataRate	CameraRate	NumFrames	NumMarkers	Units	OrigDataRate	OrigDataStartFrame	OrigNumFrames
120	120	18	19	mm	120	306	349
Frame#	Time	ThumbCMC			ThumbMCP			ThumbIP			ThumbTip			IndexMCP			IndexPIP			IndexTip			MiddleMCP			MiddlePIP			MiddleTip			RingMCP			RingPIP			RingTip			PinkyMCP			PinkyPIP			PinkyTip			BackHand1			BackHand2			BackHand3	
		X0	Y0	Z0	X1	Y1	Z1	X2	Y2	Z2	X3	Y3	Z3	X4	Y4	Z4	X5	Y5	Z5	X6	Y6	Z6	X7	Y7	Z7	X8	Y8	Z8	X9	Y9	Z9	X10	Y10	Z10	X11	Y11	Z11	X12	Y12	Z12	X13	Y13	Z13	X14	Y14	Z14	X15	Y15	Z15	X16	Y16	Z16	X17	Y17	Z17	X18	Y18	Z18	
305	2.54167	146.402	42.6552	-28.7123	118.445	53.2446	-51.2765	103.95	43.0641	-78.7484	97.3775	20.4503	-89.3302	164.388	33.77	-99.7402	162.763	42.2411	-122.61	159.595	44.4	-148.223	155.813	10.2796	-105.414	153.15	14.6581	-134.534	151.481	14.7592	-160.098	133.136	-0.797361	-106.06	120.539	6.30484	-125.178	100.83	21.2276	-142.333	108.083	-7.663	-85.8498	90.9022	17.9667	-74.669	105.133	26.6169	-52.1615	150.57	-15.081	-52.6084	153.14	-19.9897	-25.3871	170.437	12.6582	-38.9372	
306	2.55	146.695	44.0329	-29.9518	117.034	53.6454	-53.6054	101.229	46.5262	-79.7866	95.4483	23.2112	-88.9239	166.423	36.0666	-102.387	161.301	39.8985	-124.22	158.14	42.1186	-149.219	155.035	8.84077	-107.16	153.612	14.4028	-134.727	150.27	12.3573	-159.443	132.971	-1.66091	-102.896	118.94	6.45186	-125.297	98.0696	17.7612	-144.246	108.966	-3.49336	-87.2768	90.8299	15.4301	-77.4028	105.556	27.7153	-46.4033	151.113	-13.9555	-51.7077	151.357	-19.2921	-21.5989	167.428	9.05479	-41.6779	
307	2.55833	145.49	42.2858	-30.1006	117.099	49.8453	-53.257	102.044	45.0606	-76.4726	93.6312	18.7393	-92.9158	162.477	30.7746	-103.731	162.515	43.309	-127.14	159.169	45.7762	-147.929	155.31	9.29963	-108.155	152.484	12.6679	-134.273	151.25	12.6099	-158.49	130.901	-5.00438	-103.995	119.299	6.50575	-125.099	99.8898	18.461	-145.015	104.822	-6.33803	-85.3916	90.9184	18.2868	-74.4006	106.099	29.1292	-49.1256	147.07	-16.1516	-53.9994	152.581	-15.38	-25.6211	168.894	9.33562	-41.2371	
308	2.56667	145.512	40.0584	-31.4189	117.141	51.6209	-51.116	100.529	45.7355	-75.5776	93.3206	20.3845	-89.8585	162.336	30.3544	-101.666	159.248	38.7705	-128.524	157.906	41.8646	-147.195	152.595	6.50357	-109.551	150.414	9.53988	-130.6	149.817	11.1513	-159.524	130.117	-4.68154	-105.685	116.808	2.2055	-124.991	103.172	17.6642	-143.203	109.455	-5.50233	-84.3206	89.841	17.1218	-76.73	105.294	28.9231	-47.4027	146.965	-16.003	-54.3074	151.661	-18.5826	-26.0681	167.441	10.0357	-41.3808	
309	2.575	145.941	39.9424	-31.0693	116.707	51.2003	-57.1696	99.1132	44.4773	-81.1648	93.4045	20.7494	-88.7072	164.475	34.214	-102.977	160.763	38.6776	-125.3	157.814	42.8869	-149.519	152.482	5.67488	-105.706	150.211	8.84954	-135.114	148.855	9.53304	-159.86	129.971	-2.5028	-106.608	116.404	2.68637	-126.403	98.9206	17.7334	-145.846	104.755	-5.05191	-85.9702	89.2562	17.1433	-79.2354	101.479	29.4408	-50.1812	148.646	-15.9073	-51.3853	150.034	-20.9337	-23.5335	167.558	6.49538	-43.2276	
310	2.58333	146.22	42.9957	-33.1709	117.548	49.5547	-54.1092	99.3108	48.1639	-77.6848	92.9608	21.3864	-88.9398	163.799	33.5076	-104.073	160.972	39.2346	-124.359	157.005	41.7398	-147.993	151.957	6.84571	-107.004	149.006	7.70965	-132.006	150.397	11.1023	-160.259	128.645	-5.48931	-102.332	115.684	8.17575	-126.772	97.8699	23.2732	-142.803	103.566	-4.72592	-87.3889	92.5003	21.4133	-77.6437	104.679	29.2638	-48.833	148.942	-15.4826	-54.6557	150.54	-17.5002	-23.8949	166.857	8.51458	-43.3177	
311	2.59167	146.259	41.574	-32.8421	117.108	53.5541	-52.214	101.403	46.4026	-75.111	90.9623	24.0772	-89.7289	163.494	31.8535	-103.049	161.18	40.1338	-124.354	159.229	45.7329	-152.898	153.469	9.0707	-109.01	149.59	8.28757	-132.823	148.265	9.36651	-158.978	129.732	-0.98116	-102.995	112.023	8.65169	-127.14	92.4026	26.8052	-139.54	104.72	-6.24541	-84.7691	87.778	19.0339	-76.6364	105.595	30.644	-51.6615	146.745	-14.3919	-53.6102	150.12	-18.3934	-25.2173	166.444	8.59856	-41.5374	
312	2.6	146.114	43.5883	-31.448	116.895	53.7984	-53.8653	98.2855	48.1534	-79.0019	91.3851	21.1274	-89.2496	164.68	35.6642	-103.808	161.079	40.9905	-127.698	158.717	44.0108	-148.642	153.365	8.87308	-108.15	150.234	9.70286	-134.266	146.446	9.31793	-160.378	126.884	-1.68037	-106.673	110.226	9.95861	-124.35	87.9088	31.3081	-134.149	105.305	-2.00585	-87.8776	91.4672	21.1805	-77.9728	104.874	28.9418	-47.3998	146.892	-18.4183	-53.8266	152.662	-14.9838	-27.2944	170.196	10.6653	-43.9967	
313	2.60833	145.373	42.2303	-34.789	114.904	55.8229	-54.2416	97.6337	49.0244	-78.4595	88.7388	23.0146	-92.0684	162.265	32.2557	-102.438	162.381	44.5187	-127.165	159.498	45.924	-149.747	150.761	4.30698	-109.208	147.546	7.33343	-134.503	145.381	8.63493	-161.653	125.872	-4.5729	-102.882	106.908	8.81385	-123.412	85.0099	30.3963	-127.539	103.945	-3.61852	-87.777	91.0687	21.847	-78.5445	100.541	29.3559	-49.2686	146.9	-14.4487	-57.1482	150.686	-19.4667	-22.7697	167.372	8.87805	-42.6966	
314	2.61667	146.505	46.3941	-31.1586	115.909	54.8849	-52.2518	98.3202	44.8602	-79.5054	90.0016	22.5115	-90.8208	164.111	34.7956	-104.698	163.245	43.376	-125.201	158.629	45.7342	-150.347	151.766	6.27952	-108.678	147.964	8.48546	-137.69	140.965	5.39848	-160.719	125.323	-2.81802	-104.673	107.422	11.4296	-121.828	83.8762	35.4842	-121.548	108.467	-4.79382	-86.7392	90.2713	18.7732	-81.6533	101.359	32.1746	-54.9566	145.149	-17.0116	-56.8591	152.186	-14.256	-26.1256	168.112	11.7317	-42.5357	
315	2.625	146.433	43.364	-30.1934	116.723	56.2727	-51.2577	99.138	49.0082	-75.6495	87.4106	28.5549	-91.5519	162.74	32.5381	-102.836	161.135	38.8298	-124.836	159.921	46.6075	-153.61	152.106	6.51909	-106.582	145.904	4.62837	-136.377	140.353	8.49358	-161.14	124.903	-4.30959	-106.837	106.394	9.71067	-120.789	84.0797	36.3587	-113.801	105.475	-6.48943	-90.2238	90.0915	16.5711	-83.8225	98.5169	29.4648	-53.0906	147.233	-16.4616	-56.8494	151.062	-16.5875	-24.015	168.62	9.27574	-43.9729	
316	2.63333	147.141	44.4472	-30.1249	117.838	54.8734	-52.0673	100.135	56.4015	-72.9077	87.4081	33.5083	-90.4756	164.243	35.0032	-103.997	162.489	42.7252	-127.894	158.208	43.7128	-152.287	152.675	6.65578	-108.215	146.551	4.05443	-132.576	134.993	4.51412	-161.631	126.347	-3.26525	-105.025	102.44	9.83813	-119.062	82.2535	33.3404	-100.557	106.131	-7.96321	-89.9499	88.2753	11.4377	-87.1915	94.1728	29.1066	-55.8902	147.753	-17.4116	-51.5554	153.014	-18.9901	-21.2077	169.051	11.3279	-43.4343	
317	2.64167	145.182	45.5588	-32.738	117.441	60.0829	-53.8188	98.856	59.8379	-77.8045	90.8359	38.2492	-89.3624	164.934	34.9355	-102.708	163.221	41.2784	-124.1	160.26	45.744	-147.633	152.984	4.12308	-109.806	143.592	2.78733	-135.056	129.481	7.28841	-161.923	129.424	-0.46144	-101.157	99.6721	14.5911	-112.538	90.5594	33.7858	-85.5874	108.406	-10.5658	-88.5787	89.3581	12.0616	-85.4314	98.0848	28.396	-59.2688	148.806	-18.1444	-56.0163	153.55	-18.8851	-23.8285	167.262	12.4892	-43.113	
318	2.65	145.778	46.6396	-34.4125	117.815	59.1467	-50.4061	99.6281	57.833	-77.0045	89.4401	41.6001	-91.3886	164.989	34.9407	-101.911	163.073	42.0981	-126.761	162.06	46.2412	-151.185	152.559	5.13024	-108.673	145.277	7.79895	-133.798	126.759	11.6202	-162.34	126.051	0.891141	-100.952	100.114	21.601	-106.384	96.3216	36.0487	-75.5569	108.767	-8.47855	-88.2766	87.9964	12.0793	-80.7266	100.97	27.3842	-54.5789	151.788	-12.2978	-54.2967	153.65	-14.6023	-24.8659	166.741	11.4455	-42.6643	
319	2.65833	145.095	48.2274	-29.5302	116.091	57.3527	-52.8439	98.8132	57.7289	-77.0787	86.9025	42.4194	-94.1639	164.82	34.7563	-99.2773	164.563	43.0504	-122.768	166.038	51.0875	-150.004	153.585	9.80092	-106.602	142.522	10.2103	-137.087	126.78	15.3464	-158.648	123.831	7.84139	-103.462	96.6791	21.6749	-100.275	99.0742	32.9466	-65.9288	110.229	-6.54713	-85.1389	91.0092	14.4528	-77.1947	102.754	26.3717	-50.5374	151.841	-12.0229	-55.5718	153.885	-16.4695	-22.3828	167.767	13.1574	-40.7073	
320	2.66667	144.484	48.1806	-34.9193	115.089	56.2819	-52.6176	98.0988	53.0772	-76.3449	88.0787	36.171	-94.6942	164.824	35.1826	-101.258	166.772	46.3648	-124.204	166.486	49.0408	-148.045	152.441	9.2327	-110.67	142.175	9.92655	-134.973	122.298	16.4179	-159.069	119.174	5.48792	-100.973	94.6192	23.0788	-93.0018	101.745	32.1088	-60.0522	111.755	-3.77574	-84.4724	92.9152	16.1806	-74.1329	107.651	24.5505	-43.4017	152.158	-10.912	-54.8978	153.212	-14.2495	-22.5426	169.54	15.0601	-38.5585	
321	2.675	143.704	47.3593	-31.1904	114.757	55.2191	-52.7567	96.9058	52.3119	-78.4797	88.7195	28.981	-94.916	165.136	36.1747	-99.9244	164.902	43.8615	-127.298	166.365	48.5285	-147.964	149.055	4.92401	-110.308	137.803	6.72593	-134.276	119.219	12.3677	-158.811	121.173	8.92442	-98.3026	94.9226	25.1121	-89.5498	103.228	32.3402	-60.745	107.324	-0.633101	-83.8597	92.6554	16.8053	-68.1719	111.77	22.9149	-40.9993	153.298	-13.4653	-54.9916	155.941	-15.1338	-24.8846	167.304	11.3864	-41.6439	
322	2.68333	143.664	46.8939	-33.9736	114.893	51.2568	-54.2005	96.8204	47.9849	-78.7327	91.1797	26.7208	-89.8793	163.973	33.658	-99.21	166.239	44.4176	-125.699	165.471	44.4674	-148.055	150.266	8.41489	-110.436	139.413	9.01789	-135.897	121.309	14.455	-162.071	116.942	8.31172	-98.8307	95.5907	26.2917	-85.2767	107.838	30.1901	-55.3108	104.169	-3.27719	-83.0313	94.6898	16.6388	-67.9665	113.658	18.4142	-37.5623	149.855	-17.5567	-56.4342	154.394	-17.7706	-26.388	166.757	10.0306	-38.4858	
